{
  "asset": {
    "generator": "Khronos glTF Blender I/O v3.3.32",
    "version": "2.0"
  },
  "scene": 0,
  "scenes": [
    {
      "name": "Scene",
      "nodes": [0, 1, 2, 3, 4, 5, 6, 7, 8, 9, 10]
    }
  ],
  "nodes": [
    {
      "mesh": 0,
      "name": "2080 TI.001",
      "rotation": [0, -1, 0, 3.258414835727308e-7],
      "scale": [0.19612166285514832, 0.33444756269454956, 0.19612166285514832],
      "translation": [
        -0.9236091375350952, 1.3116251230239868, -0.14022278785705566
      ]
    },
    {
      "mesh": 1,
      "name": "Cube.012",
      "scale": [0.49553781747817993, 0.49553781747817993, 0.49553781747817993],
      "translation": [
        -1.2156354188919067, 0.7833169102668762, -0.5024508833885193
      ]
    },
    {
      "mesh": 2,
      "name": "Cube.011",
      "scale": [0.49553781747817993, 0.49553781747817993, 0.49553781747817993],
      "translation": [
        -1.2176331281661987, 0.7833169102668762, -0.5027633905410767
      ]
    },
    {
      "mesh": 3,
      "name": "Cube.009",
      "scale": [0.8940588235855103, 0.19396032392978668, 0.4324328601360321],
      "translation": [
        -0.5027691125869751, 1.2861155271530151, -0.5043633580207825
      ]
    },
    {
      "mesh": 4,
      "name": "Cube.008",
      "scale": [1.1209925413131714, 0.28702014684677124, 0.5421946048736572],
      "translation": [
        -0.5064094066619873, 1.2861956357955933, -0.5043633580207825
      ]
    },
    {
      "mesh": 5,
      "name": "Cube.007",
      "scale": [0.49553781747817993, 0.49553781747817993, 0.49553781747817993],
      "translation": [
        -1.9242933988571167, 1.3154269456863403, -0.5051383376121521
      ]
    },
    {
      "mesh": 6,
      "name": "Cube.006",
      "scale": [0.49553781747817993, 0.49553781747817993, 0.49553781747817993],
      "translation": [
        -0.5076682567596436, 1.31499183177948, -0.5051384568214417
      ]
    },
    {
      "mesh": 7,
      "name": "Cube.005",
      "scale": [0.49553781747817993, 0.49553781747817993, 0.49553781747817993],
      "translation": [
        -1.2156354188919067, 0.7833169102668762, -0.5024508833885193
      ]
    },
    {
      "mesh": 8,
      "name": "Cube.004",
      "scale": [0.8940588235855103, 0.19396032392978668, 0.4324328601360321],
      "translation": [
        -1.926438331604004, 1.2861155271530151, -0.5043632388114929
      ]
    },
    {
      "mesh": 9,
      "name": "Cube.003",
      "scale": [1.1209925413131714, 0.28702014684677124, 0.5421946048736572],
      "translation": [
        -1.9300804138183594, 1.2861956357955933, -0.5043632388114929
      ]
    },
    {
      "mesh": 10,
      "name": "Cube.002",
      "scale": [0.49553781747817993, 0.49553781747817993, 0.49553781747817993],
      "translation": [
        -1.2156354188919067, 0.7833169102668762, -0.5024508833885193
      ]
    }
  ],
  "materials": [
    {
      "doubleSided": true,
      "name": "Black.001",
      "pbrMetallicRoughness": {
        "baseColorFactor": [0, 0, 0, 1],
        "metallicFactor": 0,
        "roughnessFactor": 0.4000000059604645
      }
    },
    {
      "doubleSided": true,
      "name": "Material.012",
      "pbrMetallicRoughness": {
        "baseColorFactor": [
          0.020379753783345222, 0.020379753783345222, 0.020379753783345222, 1
        ],
        "metallicFactor": 0,
        "roughnessFactor": 0.4000000059604645
      }
    },
    {
      "doubleSided": true,
      "name": "silver.001",
      "pbrMetallicRoughness": {
        "baseColorFactor": [
          0.800000011920929, 0.800000011920929, 0.800000011920929, 1
        ],
        "metallicFactor": 0,
        "roughnessFactor": 0.4000000059604645
      }
    },
    {
      "doubleSided": true,
      "name": "Silver.001",
      "pbrMetallicRoughness": {
        "baseColorFactor": [
          0.7111549377441406, 0.8000000715255737, 0.7649250626564026, 1
        ],
        "metallicFactor": 0,
        "roughnessFactor": 0.4000000059604645
      }
    },
    {
      "doubleSided": true,
      "name": "Material.011",
      "pbrMetallicRoughness": {
        "baseColorFactor": [1, 0, 0.40559372305870056, 1],
        "metallicFactor": 0,
        "roughnessFactor": 0.4000000059604645
      }
    }
  ],
  "meshes": [
    {
      "name": "2080 TI.001",
      "primitives": [
        {
          "attributes": {
            "POSITION": 0,
            "NORMAL": 1,
            "TEXCOORD_0": 2
          },
          "indices": 3
        }
      ]
    },
    {
      "name": "Cube.013",
      "primitives": [
        {
          "attributes": {
            "POSITION": 4,
            "NORMAL": 5,
            "TEXCOORD_0": 6
          },
          "indices": 7,
          "material": 0
        }
      ]
    },
    {
      "name": "Cube.005",
      "primitives": [
        {
          "attributes": {
            "POSITION": 8,
            "NORMAL": 9,
            "TEXCOORD_0": 10
          },
          "indices": 11,
          "material": 0
        }
      ]
    },
    {
      "name": "Cube.007",
      "primitives": [
        {
          "attributes": {
            "POSITION": 12,
            "NORMAL": 13,
            "TEXCOORD_0": 14
          },
          "indices": 15,
          "material": 1
        },
        {
          "attributes": {
            "POSITION": 16,
            "NORMAL": 17,
            "TEXCOORD_0": 18
          },
          "indices": 19,
          "material": 2
        }
      ]
    },
    {
      "name": "Cube.006",
      "primitives": [
        {
          "attributes": {
            "POSITION": 20,
            "NORMAL": 21,
            "TEXCOORD_0": 22
          },
          "indices": 23,
          "material": 1
        }
      ]
    },
    {
      "name": "Cube.011",
      "primitives": [
        {
          "attributes": {
            "POSITION": 24,
            "NORMAL": 25,
            "TEXCOORD_0": 26
          },
          "indices": 27,
          "material": 3
        }
      ]
    },
    {
      "name": "Cube.010",
      "primitives": [
        {
          "attributes": {
            "POSITION": 28,
            "NORMAL": 29,
            "TEXCOORD_0": 30
          },
          "indices": 27,
          "material": 3
        }
      ]
    },
    {
      "name": "Cube.012",
      "primitives": [
        {
          "attributes": {
            "POSITION": 31,
            "NORMAL": 32,
            "TEXCOORD_0": 33
          },
          "indices": 34,
          "material": 0
        }
      ]
    },
    {
      "name": "Cube.009",
      "primitives": [
        {
          "attributes": {
            "POSITION": 35,
            "NORMAL": 36,
            "TEXCOORD_0": 37
          },
          "indices": 15,
          "material": 1
        },
        {
          "attributes": {
            "POSITION": 38,
            "NORMAL": 39,
            "TEXCOORD_0": 40
          },
          "indices": 19,
          "material": 2
        }
      ]
    },
    {
      "name": "Cube.008",
      "primitives": [
        {
          "attributes": {
            "POSITION": 41,
            "NORMAL": 42,
            "TEXCOORD_0": 43
          },
          "indices": 23,
          "material": 1
        }
      ]
    },
    {
      "name": "Cube.014",
      "primitives": [
        {
          "attributes": {
            "POSITION": 44,
            "NORMAL": 45,
            "TEXCOORD_0": 46
          },
          "indices": 47,
          "material": 3
        },
        {
          "attributes": {
            "POSITION": 48,
            "NORMAL": 49,
            "TEXCOORD_0": 50
          },
          "indices": 51,
          "material": 4
        }
      ]
    }
  ],
  "accessors": [
    {
      "bufferView": 0,
      "componentType": 5126,
      "count": 3235,
      "max": [3.058000326156616, 0.014999999664723873, 0.011008127592504025],
      "min": [0.03199990838766098, -0.014999999664723873, -0.6930081844329834],
      "type": "VEC3"
    },
    {
      "bufferView": 1,
      "componentType": 5126,
      "count": 3235,
      "type": "VEC3"
    },
    {
      "bufferView": 2,
      "componentType": 5126,
      "count": 3235,
      "type": "VEC2"
    },
    {
      "bufferView": 3,
      "componentType": 5123,
      "count": 5796,
      "type": "SCALAR"
    },
    {
      "bufferView": 4,
      "componentType": 5126,
      "count": 2922,
      "max": [2.391941785812378, 1.059846043586731, 1.0236496925354004],
      "min": [-2.391941785812378, 0.8365247845649719, -1.0236496925354004],
      "type": "VEC3"
    },
    {
      "bufferView": 5,
      "componentType": 5126,
      "count": 2922,
      "type": "VEC3"
    },
    {
      "bufferView": 6,
      "componentType": 5126,
      "count": 2922,
      "type": "VEC2"
    },
    {
      "bufferView": 7,
      "componentType": 5123,
      "count": 5820,
      "type": "SCALAR"
    },
    {
      "bufferView": 8,
      "componentType": 5126,
      "count": 152,
      "max": [2.6892669200897217, 0.9973344802856445, 0.8655519485473633],
      "min": [-1.6703382730484009, 0.25826454162597656, -0.8697263598442078],
      "type": "VEC3"
    },
    {
      "bufferView": 9,
      "componentType": 5126,
      "count": 152,
      "type": "VEC3"
    },
    {
      "bufferView": 10,
      "componentType": 5126,
      "count": 152,
      "type": "VEC2"
    },
    {
      "bufferView": 11,
      "componentType": 5123,
      "count": 240,
      "type": "SCALAR"
    },
    {
      "bufferView": 12,
      "componentType": 5126,
      "count": 194,
      "max": [0.16244399547576904, 0.1826527714729309, 0.33585354685783386],
      "min": [-0.16244351863861084, -0.18265366554260254, -0.33585378527641296],
      "type": "VEC3"
    },
    {
      "bufferView": 13,
      "componentType": 5126,
      "count": 194,
      "type": "VEC3"
    },
    {
      "bufferView": 14,
      "componentType": 5126,
      "count": 194,
      "type": "VEC2"
    },
    {
      "bufferView": 15,
      "componentType": 5123,
      "count": 570,
      "type": "SCALAR"
    },
    {
      "bufferView": 16,
      "componentType": 5126,
      "count": 64,
      "max": [0.16244399547576904, 0.1826527714729309, 0.33585354685783386],
      "min": [-0.16244351863861084, 0.1826527714729309, -0.33585378527641296],
      "type": "VEC3"
    },
    {
      "bufferView": 17,
      "componentType": 5126,
      "count": 64,
      "type": "VEC3"
    },
    {
      "bufferView": 18,
      "componentType": 5126,
      "count": 64,
      "type": "VEC2"
    },
    {
      "bufferView": 19,
      "componentType": 5123,
      "count": 186,
      "type": "SCALAR"
    },
    {
      "bufferView": 20,
      "componentType": 5126,
      "count": 884736,
      "max": [0.3968963921070099, 0.08093822002410889, 0.8205863237380981],
      "min": [-0.39689648151397705, -0.11907070875167847, -0.8205873966217041],
      "type": "VEC3"
    },
    {
      "bufferView": 21,
      "componentType": 5126,
      "count": 884736,
      "type": "VEC3"
    },
    {
      "bufferView": 22,
      "componentType": 5126,
      "count": 884736,
      "type": "VEC2"
    },
    {
      "bufferView": 23,
      "componentType": 5125,
      "count": 1327104,
      "type": "SCALAR"
    },
    {
      "bufferView": 24,
      "componentType": 5126,
      "count": 2048,
      "max": [0.9656955003738403, 0.013081550598144531, 0.9656952023506165],
      "min": [-0.9656959772109985, -0.013078093528747559, -0.9656959772109985],
      "type": "VEC3"
    },
    {
      "bufferView": 25,
      "componentType": 5126,
      "count": 2048,
      "type": "VEC3"
    },
    {
      "bufferView": 26,
      "componentType": 5126,
      "count": 2048,
      "type": "VEC2"
    },
    {
      "bufferView": 27,
      "componentType": 5123,
      "count": 3072,
      "type": "SCALAR"
    },
    {
      "bufferView": 28,
      "componentType": 5126,
      "count": 2048,
      "max": [0.9656955003738403, 0.013081550598144531, 0.9656952023506165],
      "min": [-0.9656959772109985, -0.013078093528747559, -0.9656959772109985],
      "type": "VEC3"
    },
    {
      "bufferView": 29,
      "componentType": 5126,
      "count": 2048,
      "type": "VEC3"
    },
    {
      "bufferView": 30,
      "componentType": 5126,
      "count": 2048,
      "type": "VEC2"
    },
    {
      "bufferView": 31,
      "componentType": 5126,
      "count": 215,
      "max": [2.689267158508301, 1.0119907855987549, 1.02364981174469],
      "min": [-2.689267158508301, 0.25826454162597656, 0],
      "type": "VEC3"
    },
    {
      "bufferView": 32,
      "componentType": 5126,
      "count": 215,
      "type": "VEC3"
    },
    {
      "bufferView": 33,
      "componentType": 5126,
      "count": 215,
      "type": "VEC2"
    },
    {
      "bufferView": 34,
      "componentType": 5123,
      "count": 375,
      "type": "SCALAR"
    },
    {
      "bufferView": 35,
      "componentType": 5126,
      "count": 194,
      "max": [0.16244399547576904, 0.1826527714729309, 0.33585354685783386],
      "min": [-0.16244351863861084, -0.18265366554260254, -0.33585378527641296],
      "type": "VEC3"
    },
    {
      "bufferView": 36,
      "componentType": 5126,
      "count": 194,
      "type": "VEC3"
    },
    {
      "bufferView": 37,
      "componentType": 5126,
      "count": 194,
      "type": "VEC2"
    },
    {
      "bufferView": 38,
      "componentType": 5126,
      "count": 64,
      "max": [0.16244399547576904, 0.1826527714729309, 0.33585354685783386],
      "min": [-0.16244351863861084, 0.1826527714729309, -0.33585378527641296],
      "type": "VEC3"
    },
    {
      "bufferView": 39,
      "componentType": 5126,
      "count": 64,
      "type": "VEC3"
    },
    {
      "bufferView": 40,
      "componentType": 5126,
      "count": 64,
      "type": "VEC2"
    },
    {
      "bufferView": 41,
      "componentType": 5126,
      "count": 884736,
      "max": [0.3968963921070099, 0.08093822002410889, 0.8205863237380981],
      "min": [-0.39689648151397705, -0.11907070875167847, -0.8205873966217041],
      "type": "VEC3"
    },
    {
      "bufferView": 42,
      "componentType": 5126,
      "count": 884736,
      "type": "VEC3"
    },
    {
      "bufferView": 43,
      "componentType": 5126,
      "count": 884736,
      "type": "VEC2"
    },
    {
      "bufferView": 44,
      "componentType": 5126,
      "count": 1634,
      "max": [2.776480197906494, 1.0598459243774414, 1.02364981174469],
      "min": [-2.776479959487915, 0.19196154177188873, -1.02364981174469],
      "type": "VEC3"
    },
    {
      "bufferView": 45,
      "componentType": 5126,
      "count": 1634,
      "type": "VEC3"
    },
    {
      "bufferView": 46,
      "componentType": 5126,
      "count": 1634,
      "type": "VEC2"
    },
    {
      "bufferView": 47,
      "componentType": 5123,
      "count": 3252,
      "type": "SCALAR"
    },
    {
      "bufferView": 48,
      "componentType": 5126,
      "count": 4,
      "max": [-2.689267158508301, 1.0119907855987549, 1.02364981174469],
      "min": [-2.689267158508301, 0.25826454162597656, -1.02364981174469],
      "type": "VEC3"
    },
    {
      "bufferView": 49,
      "componentType": 5126,
      "count": 4,
      "type": "VEC3"
    },
    {
      "bufferView": 50,
      "componentType": 5126,
      "count": 4,
      "type": "VEC2"
    },
    {
      "bufferView": 51,
      "componentType": 5123,
      "count": 6,
      "type": "SCALAR"
    }
  ],
  "bufferViews": [
    {
      "buffer": 0,
      "byteLength": 38820,
      "byteOffset": 0,
      "target": 34962
    },
    {
      "buffer": 0,
      "byteLength": 38820,
      "byteOffset": 38820,
      "target": 34962
    },
    {
      "buffer": 0,
      "byteLength": 25880,
      "byteOffset": 77640,
      "target": 34962
    },
    {
      "buffer": 0,
      "byteLength": 11592,
      "byteOffset": 103520,
      "target": 34963
    },
    {
      "buffer": 0,
      "byteLength": 35064,
      "byteOffset": 115112,
      "target": 34962
    },
    {
      "buffer": 0,
      "byteLength": 35064,
      "byteOffset": 150176,
      "target": 34962
    },
    {
      "buffer": 0,
      "byteLength": 23376,
      "byteOffset": 185240,
      "target": 34962
    },
    {
      "buffer": 0,
      "byteLength": 11640,
      "byteOffset": 208616,
      "target": 34963
    },
    {
      "buffer": 0,
      "byteLength": 1824,
      "byteOffset": 220256,
      "target": 34962
    },
    {
      "buffer": 0,
      "byteLength": 1824,
      "byteOffset": 222080,
      "target": 34962
    },
    {
      "buffer": 0,
      "byteLength": 1216,
      "byteOffset": 223904,
      "target": 34962
    },
    {
      "buffer": 0,
      "byteLength": 480,
      "byteOffset": 225120,
      "target": 34963
    },
    {
      "buffer": 0,
      "byteLength": 2328,
      "byteOffset": 225600,
      "target": 34962
    },
    {
      "buffer": 0,
      "byteLength": 2328,
      "byteOffset": 227928,
      "target": 34962
    },
    {
      "buffer": 0,
      "byteLength": 1552,
      "byteOffset": 230256,
      "target": 34962
    },
    {
      "buffer": 0,
      "byteLength": 1140,
      "byteOffset": 231808,
      "target": 34963
    },
    {
      "buffer": 0,
      "byteLength": 768,
      "byteOffset": 232948,
      "target": 34962
    },
    {
      "buffer": 0,
      "byteLength": 768,
      "byteOffset": 233716,
      "target": 34962
    },
    {
      "buffer": 0,
      "byteLength": 512,
      "byteOffset": 234484,
      "target": 34962
    },
    {
      "buffer": 0,
      "byteLength": 372,
      "byteOffset": 234996,
      "target": 34963
    },
    {
      "buffer": 0,
      "byteLength": 10616832,
      "byteOffset": 235368,
      "target": 34962
    },
    {
      "buffer": 0,
      "byteLength": 10616832,
      "byteOffset": 10852200,
      "target": 34962
    },
    {
      "buffer": 0,
      "byteLength": 7077888,
      "byteOffset": 21469032,
      "target": 34962
    },
    {
      "buffer": 0,
      "byteLength": 5308416,
      "byteOffset": 28546920,
      "target": 34963
    },
    {
      "buffer": 0,
      "byteLength": 24576,
      "byteOffset": 33855336,
      "target": 34962
    },
    {
      "buffer": 0,
      "byteLength": 24576,
      "byteOffset": 33879912,
      "target": 34962
    },
    {
      "buffer": 0,
      "byteLength": 16384,
      "byteOffset": 33904488,
      "target": 34962
    },
    {
      "buffer": 0,
      "byteLength": 6144,
      "byteOffset": 33920872,
      "target": 34963
    },
    {
      "buffer": 0,
      "byteLength": 24576,
      "byteOffset": 33927016,
      "target": 34962
    },
    {
      "buffer": 0,
      "byteLength": 24576,
      "byteOffset": 33951592,
      "target": 34962
    },
    {
      "buffer": 0,
      "byteLength": 16384,
      "byteOffset": 33976168,
      "target": 34962
    },
    {
      "buffer": 0,
      "byteLength": 2580,
      "byteOffset": 33992552,
      "target": 34962
    },
    {
      "buffer": 0,
      "byteLength": 2580,
      "byteOffset": 33995132,
      "target": 34962
    },
    {
      "buffer": 0,
      "byteLength": 1720,
      "byteOffset": 33997712,
      "target": 34962
    },
    {
      "buffer": 0,
      "byteLength": 750,
      "byteOffset": 33999432,
      "target": 34963
    },
    {
      "buffer": 0,
      "byteLength": 2328,
      "byteOffset": 34000184,
      "target": 34962
    },
    {
      "buffer": 0,
      "byteLength": 2328,
      "byteOffset": 34002512,
      "target": 34962
    },
    {
      "buffer": 0,
      "byteLength": 1552,
      "byteOffset": 34004840,
      "target": 34962
    },
    {
      "buffer": 0,
      "byteLength": 768,
      "byteOffset": 34006392,
      "target": 34962
    },
    {
      "buffer": 0,
      "byteLength": 768,
      "byteOffset": 34007160,
      "target": 34962
    },
    {
      "buffer": 0,
      "byteLength": 512,
      "byteOffset": 34007928,
      "target": 34962
    },
    {
      "buffer": 0,
      "byteLength": 10616832,
      "byteOffset": 34008440,
      "target": 34962
    },
    {
      "buffer": 0,
      "byteLength": 10616832,
      "byteOffset": 44625272,
      "target": 34962
    },
    {
      "buffer": 0,
      "byteLength": 7077888,
      "byteOffset": 55242104,
      "target": 34962
    },
    {
      "buffer": 0,
      "byteLength": 19608,
      "byteOffset": 62319992,
      "target": 34962
    },
    {
      "buffer": 0,
      "byteLength": 19608,
      "byteOffset": 62339600,
      "target": 34962
    },
    {
      "buffer": 0,
      "byteLength": 13072,
      "byteOffset": 62359208,
      "target": 34962
    },
    {
      "buffer": 0,
      "byteLength": 6504,
      "byteOffset": 62372280,
      "target": 34963
    },
    {
      "buffer": 0,
      "byteLength": 48,
      "byteOffset": 62378784,
      "target": 34962
    },
    {
      "buffer": 0,
      "byteLength": 48,
      "byteOffset": 62378832,
      "target": 34962
    },
    {
      "buffer": 0,
      "byteLength": 32,
      "byteOffset": 62378880,
      "target": 34962
    },
    {
      "buffer": 0,
      "byteLength": 12,
      "byteOffset": 62378912,
      "target": 34963
    }
  ],
  "buffers": [
    {
      "byteLength": 62378924,
      "uri": "cpu.bin"
    }
  ]
}
