{
	"asset":{
		"generator":"Khronos glTF Blender I/O v4.0.44",
		"version":"2.0"
	},
	"scene":0,
	"scenes":[
		{
			"name":"Scene",
			"nodes":[
				0,
				1,
				2,
				3,
				4,
				5
			]
		}
	],
	"nodes":[
		{
			"mesh":0,
			"name":"Legs",
			"rotation":[
				1,
				0,
				0,
				0
			],
			"scale":[
				-0.06502842903137207,
				-0.06502842903137207,
				-0.06502842903137207
			],
			"translation":[
				0.7496303915977478,
				0.4350069463253021,
				0.005647458601742983
			]
		},
		{
			"mesh":1,
			"name":"Partition",
			"scale":[
				0.3485708236694336,
				0.3485708236694336,
				0.3485708236694336
			],
			"translation":[
				0,
				0.46359390020370483,
				0
			]
		},
		{
			"mesh":2,
			"name":"Table top",
			"scale":[
				0.5434065461158752,
				0.5434065461158752,
				0.5434065461158752
			],
			"translation":[
				0,
				0.536980152130127,
				0
			]
		},
		{
			"mesh":3,
			"name":"Legs.001",
			"rotation":[
				1,
				0,
				0,
				0
			],
			"scale":[
				-0.06502842903137207,
				-0.06502842903137207,
				-0.06502842903137207
			],
			"translation":[
				0.7496303915977478,
				0.4350069463253021,
				2.5685362815856934
			]
		},
		{
			"mesh":4,
			"name":"Partition.001",
			"scale":[
				0.3485708236694336,
				0.3485708236694336,
				0.3485708236694336
			],
			"translation":[
				0,
				0.46359390020370483,
				2.5628888607025146
			]
		},
		{
			"mesh":5,
			"name":"Table top.001",
			"scale":[
				0.5434065461158752,
				0.5434065461158752,
				0.5434065461158752
			],
			"translation":[
				0,
				0.536980152130127,
				2.5628888607025146
			]
		}
	],
	"materials":[
		{
			"doubleSided":true,
			"name":"Matte Black",
			"pbrMetallicRoughness":{}
		},
		{
			"doubleSided":true,
			"name":"Material.004",
			"pbrMetallicRoughness":{
				"metallicFactor":0
			}
		},
		{
			"doubleSided":true,
			"name":"Legs White",
			"pbrMetallicRoughness":{}
		},
		{
			"doubleSided":true,
			"name":"Partition White",
			"pbrMetallicRoughness":{}
		},
		{
			"doubleSided":true,
			"name":"Wood",
			"pbrMetallicRoughness":{
				"metallicFactor":0
			}
		}
	],
	"meshes":[
		{
			"name":"Cube.003",
			"primitives":[
				{
					"attributes":{
						"POSITION":0,
						"NORMAL":1,
						"TEXCOORD_0":2
					},
					"indices":3,
					"material":0
				}
			]
		},
		{
			"name":"Cube.004",
			"primitives":[
				{
					"attributes":{
						"POSITION":4,
						"NORMAL":5,
						"TEXCOORD_0":6
					},
					"indices":7,
					"material":0
				}
			]
		},
		{
			"name":"Cube.005",
			"primitives":[
				{
					"attributes":{
						"POSITION":8,
						"NORMAL":9,
						"TEXCOORD_0":10
					},
					"indices":11,
					"material":1
				}
			]
		},
		{
			"name":"Cube.007",
			"primitives":[
				{
					"attributes":{
						"POSITION":12,
						"NORMAL":13,
						"TEXCOORD_0":14
					},
					"indices":15,
					"material":2
				}
			]
		},
		{
			"name":"Cube.006",
			"primitives":[
				{
					"attributes":{
						"POSITION":16,
						"NORMAL":17,
						"TEXCOORD_0":18
					},
					"indices":7,
					"material":3
				}
			]
		},
		{
			"name":"Cube.002",
			"primitives":[
				{
					"attributes":{
						"POSITION":19,
						"NORMAL":20,
						"TEXCOORD_0":21
					},
					"indices":22,
					"material":4
				}
			]
		}
	],
	"accessors":[
		{
			"bufferView":0,
			"componentType":5126,
			"count":24091,
			"max":[
				26.83075523376465,
				1.3706532716751099,
				6.333494663238525
			],
			"min":[
				-4.030728816986084,
				-15.088066101074219,
				-6.333494663238525
			],
			"type":"VEC3"
		},
		{
			"bufferView":1,
			"componentType":5126,
			"count":24091,
			"type":"VEC3"
		},
		{
			"bufferView":2,
			"componentType":5126,
			"count":24091,
			"type":"VEC2"
		},
		{
			"bufferView":3,
			"componentType":5123,
			"count":129984,
			"type":"SCALAR"
		},
		{
			"bufferView":4,
			"componentType":5126,
			"count":110,
			"max":[
				1.9640254974365234,
				0.1736941933631897,
				0.07280337810516357
			],
			"min":[
				-1.9163706302642822,
				-0.10955458879470825,
				-0.07101428508758545
			],
			"type":"VEC3"
		},
		{
			"bufferView":5,
			"componentType":5126,
			"count":110,
			"type":"VEC3"
		},
		{
			"bufferView":6,
			"componentType":5126,
			"count":110,
			"type":"VEC2"
		},
		{
			"bufferView":7,
			"componentType":5123,
			"count":372,
			"type":"SCALAR"
		},
		{
			"bufferView":8,
			"componentType":5126,
			"count":172,
			"max":[
				2.245284080505371,
				0.030269047245383263,
				1.1945219039916992
			],
			"min":[
				-2.240463972091675,
				-0.023631513118743896,
				-1.1914232969284058
			],
			"type":"VEC3"
		},
		{
			"bufferView":9,
			"componentType":5126,
			"count":172,
			"type":"VEC3"
		},
		{
			"bufferView":10,
			"componentType":5126,
			"count":172,
			"type":"VEC2"
		},
		{
			"bufferView":11,
			"componentType":5123,
			"count":564,
			"type":"SCALAR"
		},
		{
			"bufferView":12,
			"componentType":5126,
			"count":24144,
			"max":[
				26.83075523376465,
				1.3706532716751099,
				6.333494663238525
			],
			"min":[
				-4.030728816986084,
				-15.088066101074219,
				-6.333494663238525
			],
			"type":"VEC3"
		},
		{
			"bufferView":13,
			"componentType":5126,
			"count":24144,
			"type":"VEC3"
		},
		{
			"bufferView":14,
			"componentType":5126,
			"count":24144,
			"type":"VEC2"
		},
		{
			"bufferView":15,
			"componentType":5123,
			"count":129984,
			"type":"SCALAR"
		},
		{
			"bufferView":16,
			"componentType":5126,
			"count":110,
			"max":[
				1.9640254974365234,
				0.1736941933631897,
				0.07280337810516357
			],
			"min":[
				-1.9163706302642822,
				-0.10955458879470825,
				-0.07101428508758545
			],
			"type":"VEC3"
		},
		{
			"bufferView":17,
			"componentType":5126,
			"count":110,
			"type":"VEC3"
		},
		{
			"bufferView":18,
			"componentType":5126,
			"count":110,
			"type":"VEC2"
		},
		{
			"bufferView":19,
			"componentType":5126,
			"count":172,
			"max":[
				2.245284080505371,
				0.030268967151641846,
				1.1945219039916992
			],
			"min":[
				-2.240463972091675,
				-0.023631513118743896,
				-1.1914232969284058
			],
			"type":"VEC3"
		},
		{
			"bufferView":20,
			"componentType":5126,
			"count":172,
			"type":"VEC3"
		},
		{
			"bufferView":21,
			"componentType":5126,
			"count":172,
			"type":"VEC2"
		},
		{
			"bufferView":22,
			"componentType":5123,
			"count":564,
			"type":"SCALAR"
		}
	],
	"bufferViews":[
		{
			"buffer":0,
			"byteLength":289092,
			"byteOffset":0,
			"target":34962
		},
		{
			"buffer":0,
			"byteLength":289092,
			"byteOffset":289092,
			"target":34962
		},
		{
			"buffer":0,
			"byteLength":192728,
			"byteOffset":578184,
			"target":34962
		},
		{
			"buffer":0,
			"byteLength":259968,
			"byteOffset":770912,
			"target":34963
		},
		{
			"buffer":0,
			"byteLength":1320,
			"byteOffset":1030880,
			"target":34962
		},
		{
			"buffer":0,
			"byteLength":1320,
			"byteOffset":1032200,
			"target":34962
		},
		{
			"buffer":0,
			"byteLength":880,
			"byteOffset":1033520,
			"target":34962
		},
		{
			"buffer":0,
			"byteLength":744,
			"byteOffset":1034400,
			"target":34963
		},
		{
			"buffer":0,
			"byteLength":2064,
			"byteOffset":1035144,
			"target":34962
		},
		{
			"buffer":0,
			"byteLength":2064,
			"byteOffset":1037208,
			"target":34962
		},
		{
			"buffer":0,
			"byteLength":1376,
			"byteOffset":1039272,
			"target":34962
		},
		{
			"buffer":0,
			"byteLength":1128,
			"byteOffset":1040648,
			"target":34963
		},
		{
			"buffer":0,
			"byteLength":289728,
			"byteOffset":1041776,
			"target":34962
		},
		{
			"buffer":0,
			"byteLength":289728,
			"byteOffset":1331504,
			"target":34962
		},
		{
			"buffer":0,
			"byteLength":193152,
			"byteOffset":1621232,
			"target":34962
		},
		{
			"buffer":0,
			"byteLength":259968,
			"byteOffset":1814384,
			"target":34963
		},
		{
			"buffer":0,
			"byteLength":1320,
			"byteOffset":2074352,
			"target":34962
		},
		{
			"buffer":0,
			"byteLength":1320,
			"byteOffset":2075672,
			"target":34962
		},
		{
			"buffer":0,
			"byteLength":880,
			"byteOffset":2076992,
			"target":34962
		},
		{
			"buffer":0,
			"byteLength":2064,
			"byteOffset":2077872,
			"target":34962
		},
		{
			"buffer":0,
			"byteLength":2064,
			"byteOffset":2079936,
			"target":34962
		},
		{
			"buffer":0,
			"byteLength":1376,
			"byteOffset":2082000,
			"target":34962
		},
		{
			"buffer":0,
			"byteLength":1128,
			"byteOffset":2083376,
			"target":34963
		}
	],
	"buffers":[
		{
			"byteLength":2084504,
			"uri":"table.bin"
		}
	]
}